<svg height="464pt" viewBox="0 0 464 464" width="464pt" xmlns="http://www.w3.org/2000/svg"><path d="m304 144h-16v-65.601562c0-6.398438 2.398438-12.796876 7.199219-16.796876l46.402343-46.402343c4.796876-4.800781 10.398438-7.199219 16.796876-7.199219h81.601562v16h-81.601562c-2.398438 0-4 .800781-5.597657 2.398438l-46.402343 46.402343c-1.597657 1.597657-2.398438 3.199219-2.398438 5.597657zm0 0" fill="#d6d7d8"/><path d="m333.601562 173.601562-11.203124-11.203124 51.203124-51.199219c1.597657-1.597657 2.398438-3.199219 2.398438-5.597657v-26.402343h16v26.402343c0 6.398438-2.398438 12.796876-7.199219 16.796876zm0 0" fill="#d6d7d8"/><path d="m346.398438 445.601562-51.199219-51.203124c-4.800781-4.796876-7.199219-10.398438-7.199219-16.796876v-57.601562h16v57.601562c0 2.398438.800781 4 2.398438 5.597657l51.203124 51.199219zm0 0" fill="#d6d7d8"/><path d="m376 448c0 8.835938-7.164062 16-16 16s-16-7.164062-16-16 7.164062-16 16-16 16 7.164062 16 16zm0 0" fill="#b4b4b5"/><path d="m393.601562 208h-49.601562v-16h49.601562c2.398438 0 4-.800781 5.597657-2.398438l27.199219-27.203124 11.203124 11.203124-27.203124 27.199219c-4.796876 4.800781-10.398438 7.199219-16.796876 7.199219zm0 0" fill="#d6d7d8"/><path d="m432 392h-16v-25.601562c0-2.398438-.800781-4-2.398438-5.597657l-38.402343-38.402343c-1.597657-1.597657-3.199219-2.398438-5.597657-2.398438h-65.601562v-16h65.601562c6.398438 0 12.796876 2.398438 16.796876 7.199219l38.402343 38.402343c4.800781 4.796876 7.199219 10.398438 7.199219 16.796876zm0 0" fill="#d6d7d8"/><path d="m440 400c0 8.835938-7.164062 16-16 16s-16-7.164062-16-16 7.164062-16 16-16 16 7.164062 16 16zm0 0" fill="#b4b4b5"/><path d="m176 136h-16v-57.601562c0-2.398438-.800781-4-2.398438-5.597657l-46.402343-46.402343c-1.597657-1.597657-4-2.398438-5.597657-2.398438h-81.601562v-16h81.601562c6.398438 0 12.796876 2.398438 16.796876 7.199219l46.402343 46.402343c4.800781 4.796876 7.199219 10.398438 7.199219 16.796876zm0 0" fill="#d6d7d8"/><path d="m130.398438 173.601562-51.199219-51.203124c-4.800781-4.796876-7.199219-10.398438-7.199219-16.796876v-25.601562h16v25.601562c0 2.398438.800781 4 2.398438 5.597657l51.203124 51.199219zm0 0" fill="#d6d7d8"/><path d="m49.601562 296h-25.601562v-16h25.601562c2.398438 0 4-.800781 5.597657-2.398438l62.402343-62.402343v22.402343l-51.203124 51.199219c-4.796876 4.800781-10.398438 7.199219-16.796876 7.199219zm0 0" fill="#d6d7d8"/><path d="m117.601562 445.601562-11.203124-11.203124 51.203124-51.199219c1.597657-1.597657 2.398438-3.199219 2.398438-5.597657v-57.601562h16v57.601562c0 6.398438-2.398438 12.796876-7.199219 16.796876zm0 0" fill="#d6d7d8"/><path d="m32 288c0 8.835938-7.164062 16-16 16s-16-7.164062-16-16 7.164062-16 16-16 16 7.164062 16 16zm0 0" fill="#b4b4b5"/><path d="m120 448c0 8.835938-7.164062 16-16 16s-16-7.164062-16-16 7.164062-16 16-16 16 7.164062 16 16zm0 0" fill="#b4b4b5"/><path d="m128 208h-57.601562c-6.398438 0-12.796876-2.398438-16.796876-7.199219l-27.203124-27.199219 11.203124-11.203124 27.199219 27.203124c1.597657 1.597657 3.199219 2.398438 5.597657 2.398438h57.601562zm0 0" fill="#d6d7d8"/><path d="m40 160c0 8.835938-7.164062 16-16 16s-16-7.164062-16-16 7.164062-16 16-16 16 7.164062 16 16zm0 0" fill="#b4b4b5"/><path d="m48 392h-16v-25.601562c0-6.398438 2.398438-12.796876 7.199219-16.796876l38.402343-38.402343c4.796876-4.800781 10.398438-7.199219 16.796876-7.199219h57.601562v16h-57.601562c-2.398438 0-4 .800781-5.597657 2.398438l-38.402343 38.402343c-1.597657 1.597657-2.398438 4-2.398438 5.597657zm0 0" fill="#d6d7d8"/><path d="m56 400c0 8.835938-7.164062 16-16 16s-16-7.164062-16-16 7.164062-16 16-16 16 7.164062 16 16zm0 0" fill="#b4b4b5"/><path d="m224 24h16v96h-16zm0 0" fill="#d6d7d8"/><path d="m248 16c0 8.835938-7.164062 16-16 16s-16-7.164062-16-16 7.164062-16 16-16 16 7.164062 16 16zm0 0" fill="#b4b4b5"/><path d="m224 344h16v96h-16zm0 0" fill="#d6d7d8"/><path d="m248 448c0 8.835938-7.164062 16-16 16s-16-7.164062-16-16 7.164062-16 16-16 16 7.164062 16 16zm0 0" fill="#b4b4b5"/><path d="m414.398438 280c-2.398438 0-4-.800781-5.597657-2.398438l-64.800781-65.601562v23.199219l53.601562 53.601562c4.796876 4.800781 10.398438 7.199219 16.796876 7.199219h24v-16zm0 0" fill="#d6d7d8"/><path d="m352 232c0 66.273438-53.726562 120-120 120s-120-53.726562-120-120 53.726562-120 120-120 120 53.726562 120 120zm0 0" fill="#edd9be"/><path d="m288 288c8.800781 0 16-7.199219 16-16v-80c0-4.800781-3.199219-8-8-8h-56v-8c0-4.800781-3.199219-8-8-8h-56c-4.800781 0-8 3.199219-8 8v40h96c4.800781 0 8 3.199219 8 8v48c0 8.800781 7.199219 16 16 16zm0 0" fill="#24788e"/><path d="m288 288h-120c-4.800781 0-8-3.199219-8-8v-56c0-4.800781 3.199219-8 8-8h96c4.800781 0 8 3.199219 8 8v48c0 8.800781 7.199219 16 16 16zm0 0" fill="#52b0c6"/><g fill="#b4b4b5"><path d="m96 72c0 8.835938-7.164062 16-16 16s-16-7.164062-16-16 7.164062-16 16-16 16 7.164062 16 16zm0 0"/><path d="m32 16c0 8.835938-7.164062 16-16 16s-16-7.164062-16-16 7.164062-16 16-16 16 7.164062 16 16zm0 0"/><path d="m400 72c0 8.835938-7.164062 16-16 16s-16-7.164062-16-16 7.164062-16 16-16 16 7.164062 16 16zm0 0"/><path d="m464 16c0 8.835938-7.164062 16-16 16s-16-7.164062-16-16 7.164062-16 16-16 16 7.164062 16 16zm0 0"/><path d="m456 160c0 8.835938-7.164062 16-16 16s-16-7.164062-16-16 7.164062-16 16-16 16 7.164062 16 16zm0 0"/><path d="m464 288c0 8.835938-7.164062 16-16 16s-16-7.164062-16-16 7.164062-16 16-16 16 7.164062 16 16zm0 0"/></g></svg>