<svg height="471pt" viewBox="-67 0 471 471.95694" width="471pt" xmlns="http://www.w3.org/2000/svg"><path d="m168.476562 79.957031-96 48v32h192v-28zm0 0" fill="#e2c8ac"/><path d="m112.476562 151.957031-40-24v48zm0 0" fill="#ceb195"/><path d="m207.679688 100.757812-16.800782-8.800781-93.601562 50.398438 15.199218 9.601562h.800782zm0 0" fill="#c1a38a"/><path d="m270.078125 35.15625c-2.398437-8.800781-11.199219-13.597656-20-11.199219l-216 58.398438c-8.800781 2.402343-13.601563 11.203125-11.199219 20l2.398438 8 247.199218-67.199219zm0 0" fill="#668796"/><path d="m96.476562 66.355469-6.398437-23.199219c-3.199219-12.800781 4-25.597656 16.800781-29.597656l46.398438-12.800782c12.800781-3.199218 25.601562 4 29.601562 16.800782l6.398438 23.199218-15.199219 4-6.398437-23.199218c-.800782-4-5.601563-6.402344-9.601563-5.601563l-46.398437 12.800781c-4 .800782-6.402344 5.597657-5.601563 9.597657l6.398437 23.203125zm0 0" fill="#83a0aa"/><path d="m40.476562 151.957031v304c0 8.800781 7.203126 16 16 16h224c8.800782 0 16-7.199219 16-16v-304zm0 0" fill="#83a0aa"/><g fill="#668796"><path d="m336.476562 175.957031h-16v-16h-304v16h-16v-32h336zm0 0"/><path d="m96.476562 183.957031h16v256h-16zm0 0"/><path d="m160.476562 183.957031h16v256h-16zm0 0"/><path d="m224.476562 183.957031h16v256h-16zm0 0"/></g><path d="m208.476562 63.957031h16v16h-16zm0 0" fill="#f7d289"/><path d="m240.476562 71.957031h16v24h-16zm0 0" fill="#f7d289"/><path d="m272.476562 87.957031h16v24h-16zm0 0" fill="#f7d289"/></svg>