<?xml version="1.0" encoding="iso-8859-1"?>
<!-- Generator: Adobe Illustrator 19.0.0, SVG Export Plug-In . SVG Version: 6.00 Build 0)  -->
<svg xmlns="http://www.w3.org/2000/svg" xmlns:xlink="http://www.w3.org/1999/xlink" version="1.1" id="Layer_1" x="0px" y="0px" viewBox="0 0 512 512" style="enable-background:new 0 0 512 512;" xml:space="preserve" width="512" height="512">
<g>
	<path d="M428.794,69.212l0.255,0.113c1.326,0.587,2.71,0.865,4.072,0.865c3.863,0,7.549-2.236,9.215-5.997   c2.251-5.085-0.046-11.034-5.133-13.286l-0.256-0.113c-5.088-2.254-11.033,0.046-13.287,5.132   C421.41,61.012,423.707,66.96,428.794,69.212z"/>
	<path d="M477.055,95.384c-2.936-4.725-9.144-6.179-13.87-3.243c-4.725,2.935-6.177,9.144-3.242,13.869   c45.44,73.174,27.241,177.335-43.276,247.67c-21.74,21.684-46.748,38.326-73.246,49.626l-150.554-150.14l-82.63-82.417   c5.807-12.96,13.02-25.699,21.629-38.084c12.885,9.897,28.574,15.275,45.095,15.275c19.793,0,38.407-7.693,52.411-21.661   c14.01-13.959,21.729-32.528,21.734-52.287c0.003-10.563-2.218-20.78-6.406-30.147c47.298-17.63,97.798-18.069,140.125-0.919   c5.156,2.091,11.028-0.397,13.117-5.552c2.088-5.155-0.397-11.027-5.553-13.116C344.244,4.751,286.866,5.638,233.785,26.463   c-1.396-1.659-2.86-3.274-4.414-4.824C215.364,7.685,196.751,0,176.96,0c-19.79,0-38.402,7.686-52.417,21.647   c-14.004,13.983-21.712,32.573-21.706,52.344c0.003,16.122,5.143,31.45,14.637,44.13c-11.488,16.083-20.904,33-28.115,50.411   c-0.245,0.482-0.445,0.979-0.607,1.486c-8.632,21.245-13.99,43.205-15.812,65.266c-3.536,42.833,6.406,85.368,28.77,123.451   l-6.354,8.909l-79.746,63.583c-5.144,4.092-8.188,10.096-8.57,16.905c-0.414,7.381,2.476,14.916,7.726,20.15l36.055,35.993   c4.922,4.91,11.75,7.726,18.733,7.726c7.284,0,13.972-3.109,18.365-8.552l64.347-80.17l8.52-6.023   c30.186,15.881,63.306,23.964,97.649,23.964c13.905,0,28.014-1.325,42.204-3.991c14.77-2.775,29.346-7.01,43.49-12.56   c0.327-0.107,0.65-0.233,0.967-0.375c31.742-12.609,61.264-31.884,85.796-56.353c37.629-37.532,62.892-85.566,71.133-135.252   C510.221,183.275,501.353,134.513,477.055,95.384z M138.768,35.909c10.205-10.167,23.77-15.767,38.192-15.767   c14.425,0,27.988,5.6,38.19,15.762c2.523,2.516,4.762,5.239,6.708,8.127c0.028,0.046,0.063,0.088,0.092,0.133   c5.865,8.763,9.015,19.051,9.012,29.821c-0.005,14.367-5.618,27.871-15.812,38.028c-10.206,10.179-23.768,15.784-38.19,15.784   c-14.421,0-27.984-5.605-38.189-15.784c-10.18-10.153-15.789-23.659-15.793-38.028C122.975,59.602,128.585,46.077,138.768,35.909z    M137.441,409.567l-65.215,81.251c-0.692,0.859-1.836,1.04-2.674,1.04c-1.64,0-3.369-0.707-4.506-1.841L28.99,454.023   c-1.212-1.209-1.935-3.08-1.84-4.764c0.058-1.024,0.394-1.789,1.008-2.277l80.857-64.47c0.73-0.583,1.377-1.265,1.92-2.026   l10.925-15.317c0.085-0.115,0.169-0.229,0.248-0.348l28.87-40.478c0.433-0.603,1.469-0.693,2.049-0.693   c1.719,0,3.601,0.767,4.786,1.95l36.056,35.992c1.292,1.289,2.091,3.414,1.942,5.169c-0.097,1.138-0.508,1.428-0.643,1.524   l-55.686,39.361C138.716,408.189,138.029,408.835,137.441,409.567z M179.533,404.003l27.262-19.27   c5.287-3.737,8.516-9.517,9.088-16.273c0.652-7.715-2.26-15.613-7.786-21.125l-36.057-35.994   c-4.992-4.979-11.922-7.833-19.013-7.833c-7.558,0-14.269,3.315-18.431,9.117l-19.956,27.979   c-24.91-47.034-28.863-99.281-12.371-149.352l76.372,76.174l143.962,143.566C274.883,425.964,223.978,424.182,179.533,404.003z"/>
</g>















</svg>
